<svg width="66" height="68" viewBox="0 0 66 68" fill="none" xmlns="http://www.w3.org/2000/svg">
<path d="M28.875 63.75H33V68H0V63.75H4.125V36.125C4.125 34.4427 4.42578 32.86 5.02734 31.377C5.62891 29.8939 6.44531 28.5768 7.47656 27.4258C8.50781 26.2747 9.73242 25.3451 11.1504 24.6367C12.5684 23.9284 14.0938 23.5189 15.7266 23.4082L35.3203 2.58984C36.0723 1.79297 36.9531 1.16211 37.9629 0.697266C38.9727 0.232422 40.0254 0 41.1211 0C41.8945 0 42.668 0.110677 43.4414 0.332031C44.2148 0.553385 44.9453 0.874349 45.6328 1.29492C46.3203 1.71549 46.9326 2.22461 47.4697 2.82227C48.0068 3.41992 48.4473 4.09505 48.791 4.84766L61.166 33.3359C61.5312 34.1549 61.7139 35.0736 61.7139 36.0918C61.7139 36.9772 61.5635 37.8073 61.2627 38.582C60.9619 39.3568 60.5322 40.0319 59.9736 40.6074C59.415 41.1829 58.7598 41.6478 58.0078 42.002C57.2559 42.3561 56.4502 42.5221 55.5908 42.5C54.3662 42.5 53.249 42.1569 52.2393 41.4707C51.2295 40.7845 50.4668 39.8659 49.9512 38.7148L41.8623 20.0547L28.7139 34.0332C28.7568 34.3874 28.7891 34.7305 28.8105 35.0625C28.832 35.3945 28.8535 35.7487 28.875 36.125V63.75ZM44.9238 16.8008L51.3047 31.4102L55.0752 29.75L47.9854 13.3809C47.5771 14.0228 47.0938 14.6204 46.5352 15.1738C45.9766 15.7272 45.4395 16.2695 44.9238 16.8008ZM57.6211 36.0918C57.6211 35.6491 57.5244 35.2285 57.3311 34.8301C57.1377 34.4316 56.9551 34.0332 56.7832 33.6348L52.9805 35.2949C53.1309 35.627 53.2705 35.959 53.3994 36.291C53.5283 36.623 53.6895 36.944 53.8828 37.2539C54.0762 37.5638 54.3018 37.7962 54.5596 37.9512C54.8174 38.1061 55.1719 38.2057 55.623 38.25C56.2031 38.25 56.6758 38.0397 57.041 37.6191C57.4062 37.1986 57.5996 36.6895 57.6211 36.0918ZM20.7539 24.1387C22.0859 24.6478 23.2998 25.3672 24.3955 26.2969C25.4912 27.2266 26.4043 28.3223 27.1348 29.584L44.2148 11.4551C44.6016 11.0345 44.8916 10.5697 45.085 10.0605C45.2783 9.55143 45.375 9.00911 45.375 8.43359C45.375 7.85807 45.2676 7.31576 45.0527 6.80664C44.8379 6.29753 44.5479 5.85482 44.1826 5.47852C43.8174 5.10221 43.3877 4.80339 42.8936 4.58203C42.3994 4.36068 41.873 4.25 41.3145 4.25C40.1113 4.25 39.1016 4.68164 38.2852 5.54492L20.7539 24.1387ZM8.25 63.75H24.75V36.125C24.75 34.9518 24.5352 33.8561 24.1055 32.8379C23.6758 31.8197 23.085 30.9121 22.333 30.1152C21.5811 29.3184 20.7109 28.7096 19.7227 28.2891C18.7344 27.8685 17.6602 27.6471 16.5 27.625C15.3613 27.625 14.2979 27.8464 13.3096 28.2891C12.3213 28.7318 11.4404 29.3405 10.667 30.1152C9.89355 30.89 9.30273 31.7865 8.89453 32.8047C8.48633 33.8229 8.27148 34.9297 8.25 36.125V63.75ZM16.5 34C17.0801 34 17.6172 34.1107 18.1113 34.332C18.6055 34.5534 19.0352 34.8522 19.4004 35.2285C19.7656 35.6048 20.0664 36.0586 20.3027 36.5898C20.5391 37.1211 20.6465 37.6745 20.625 38.25C20.625 38.8477 20.5176 39.401 20.3027 39.9102C20.0879 40.4193 19.7979 40.862 19.4326 41.2383C19.0674 41.6146 18.627 41.9245 18.1113 42.168C17.5957 42.4115 17.0586 42.5221 16.5 42.5C15.9199 42.5 15.3828 42.3893 14.8887 42.168C14.3945 41.9466 13.9648 41.6478 13.5996 41.2715C13.2344 40.8952 12.9336 40.4414 12.6973 39.9102C12.4609 39.3789 12.3535 38.8255 12.375 38.25C12.375 37.6523 12.4824 37.099 12.6973 36.5898C12.9121 36.0807 13.2021 35.638 13.5674 35.2617C13.9326 34.8854 14.373 34.5755 14.8887 34.332C15.4043 34.0885 15.9414 33.9779 16.5 34ZM45.375 59.5V55.25H66V59.5H45.375ZM45.375 46.75H66V51H45.375V46.75ZM37.125 51V46.75H41.25V51H37.125ZM45.375 68V63.75H66V68H45.375ZM37.125 68V63.75H41.25V68H37.125ZM37.125 59.5V55.25H41.25V59.5H37.125Z" fill="black"/>
</svg>
